# xmcd
#
# Track frame offsets: 
#        150
#        14802
#        27740
#        41122
#        55510
#        68855
#        80905
#        97092
#        109292
#        126557
#        140310
#        152757
#        166877
#        179357
#        191710
#        203305
#        215022
#        232130
#        247527
#        261037
#
# Disc length: 3672 seconds
#
# Revision: 3
# Processed by: cddbd v1.5.2PL0 Copyright (c) Steve Scherf et al.
# Submitted via: ExactAudioCopy v0.99pb4
#
DISCID=280e5614
DTITLE=Bill Monroe And His Blue Grass Boys - The Essential . . . (1945
DTITLE=Various Artist - 1949) [CD2]
DYEAR=1992
DGENRE=Bluegrass
TTITLE0=I'm Going Back To Old Kentucky
TTITLE1=It's Mighty Dark To Travel
TTITLE2=I Hear A Sweet Voice Calling
TTITLE3=Little Cabin Home On The Hill
TTITLE4=My Rose Of Old Kentucky
TTITLE5=Blue Grass Breakdown
TTITLE6=Sweetheart, You Done Me Wrong
TTITLE7=The Old Cross Road
TTITLE8=That Home Above
TTITLE9=Remember The Cross
TTITLE10=Little Community Church
TTITLE11=Along About Daybreak
TTITLE12=When You Are Lonely
TTITLE13=Molly And Tenbrooks (The Racehorse Song)
TTITLE14=Shine Hallelujah, Shine
TTITLE15=I'm Travellin' On And On
TTITLE16=Can't You Hear Me Callin'?
TTITLE17=Travellin' This Lonesome Road
TTITLE18=Blue Grass Stomp
TTITLE19=The Girl In The Blue Velvet Band
EXTD=
EXTT0=
EXTT1=
EXTT2=
EXTT3=
EXTT4=
EXTT5=
EXTT6=
EXTT7=
EXTT8=
EXTT9=
EXTT10=
EXTT11=
EXTT12=
EXTT13=
EXTT14=
EXTT15=
EXTT16=
EXTT17=
EXTT18=
EXTT19=
PLAYORDER=
